<mxfile host="app.diagrams.net" agent="Mozilla/5.0 (Windows NT 10.0; Win64; x64) AppleWebKit/537.36 (KHTML, like Gecko) Chrome/140.0.0.0 Safari/537.36" version="28.2.5">
  <diagram name="第 1 页" id="G5vYfgqyF8wtwim_QH4h">
    <mxGraphModel dx="1213" dy="730" grid="1" gridSize="10" guides="1" tooltips="1" connect="1" arrows="1" fold="1" page="1" pageScale="1" pageWidth="827" pageHeight="1169" math="0" shadow="0">
      <root>
        <mxCell id="0" />
        <mxCell id="1" parent="0" />
        <mxCell id="m1kAraEHEm_9mK_-Fzff-1" value="" style="text;whiteSpace=wrap;html=1;" vertex="1" parent="1">
          <mxGeometry x="300" y="380" width="60" height="50" as="geometry" />
        </mxCell>
        <mxCell id="m1kAraEHEm_9mK_-Fzff-2" value="" style="text;whiteSpace=wrap;html=1;" vertex="1" parent="1">
          <mxGeometry x="210" y="530" width="60" height="50" as="geometry" />
        </mxCell>
        <mxCell id="m1kAraEHEm_9mK_-Fzff-3" value="" style="text;whiteSpace=wrap;html=1;" vertex="1" parent="1">
          <mxGeometry x="130" y="370" width="60" height="50" as="geometry" />
        </mxCell>
        <mxCell id="m1kAraEHEm_9mK_-Fzff-5" value="&lt;span style=&quot;font-family: 默认字体; font-size: 14px; background-color: rgb(248, 249, 250);&quot;&gt;应用开发（北向）&lt;/span&gt;" style="rounded=1;whiteSpace=wrap;html=1;" vertex="1" parent="1">
          <mxGeometry x="70" y="375" width="120" height="60" as="geometry" />
        </mxCell>
        <mxCell id="m1kAraEHEm_9mK_-Fzff-6" value="&lt;span style=&quot;font-family: 默认字体; font-size: 14px; background-color: rgb(248, 249, 250);&quot;&gt;Stage模型&lt;/span&gt;" style="rounded=1;whiteSpace=wrap;html=1;" vertex="1" parent="1">
          <mxGeometry x="240" y="375" width="120" height="60" as="geometry" />
        </mxCell>
        <mxCell id="m1kAraEHEm_9mK_-Fzff-7" value="" style="rounded=1;whiteSpace=wrap;html=1;" vertex="1" parent="1">
          <mxGeometry x="390" y="910" width="120" height="60" as="geometry" />
        </mxCell>
        <mxCell id="m1kAraEHEm_9mK_-Fzff-8" value="" style="rounded=1;whiteSpace=wrap;html=1;" vertex="1" parent="1">
          <mxGeometry x="390" y="910" width="120" height="60" as="geometry" />
        </mxCell>
        <mxCell id="m1kAraEHEm_9mK_-Fzff-9" value="" style="rounded=1;whiteSpace=wrap;html=1;" vertex="1" parent="1">
          <mxGeometry x="390" y="910" width="120" height="60" as="geometry" />
        </mxCell>
        <mxCell id="m1kAraEHEm_9mK_-Fzff-10" value="" style="rounded=1;whiteSpace=wrap;html=1;" vertex="1" parent="1">
          <mxGeometry x="640" y="890" width="120" height="60" as="geometry" />
        </mxCell>
        <mxCell id="m1kAraEHEm_9mK_-Fzff-11" value="" style="rounded=1;whiteSpace=wrap;html=1;" vertex="1" parent="1">
          <mxGeometry x="630" y="900" width="120" height="60" as="geometry" />
        </mxCell>
        <mxCell id="m1kAraEHEm_9mK_-Fzff-12" value="&lt;span style=&quot;font-family: 默认字体; font-size: 14px; background-color: rgb(248, 249, 250);&quot;&gt;一次开发，多端部署&lt;/span&gt;" style="rounded=1;whiteSpace=wrap;html=1;" vertex="1" parent="1">
          <mxGeometry x="1190" y="375" width="120" height="60" as="geometry" />
        </mxCell>
        <mxCell id="m1kAraEHEm_9mK_-Fzff-13" value="&lt;span style=&quot;font-family: 默认字体; font-size: 14px; background-color: rgb(248, 249, 250);&quot;&gt;视频&lt;/span&gt;" style="rounded=1;whiteSpace=wrap;html=1;" vertex="1" parent="1">
          <mxGeometry x="1030" y="375" width="120" height="60" as="geometry" />
        </mxCell>
        <mxCell id="m1kAraEHEm_9mK_-Fzff-14" value="&lt;span style=&quot;font-family: 默认字体; font-size: 14px; background-color: rgb(248, 249, 250);&quot;&gt;通知与窗口管理&lt;/span&gt;" style="rounded=1;whiteSpace=wrap;html=1;" vertex="1" parent="1">
          <mxGeometry x="550" y="375" width="120" height="60" as="geometry" />
        </mxCell>
        <mxCell id="m1kAraEHEm_9mK_-Fzff-15" value="" style="rounded=1;whiteSpace=wrap;html=1;" vertex="1" parent="1">
          <mxGeometry x="510" y="920" width="120" height="60" as="geometry" />
        </mxCell>
        <mxCell id="m1kAraEHEm_9mK_-Fzff-16" value="" style="rounded=1;whiteSpace=wrap;html=1;" vertex="1" parent="1">
          <mxGeometry x="530" y="880" width="120" height="60" as="geometry" />
        </mxCell>
        <mxCell id="m1kAraEHEm_9mK_-Fzff-17" value="" style="rounded=1;whiteSpace=wrap;html=1;" vertex="1" parent="1">
          <mxGeometry x="530" y="880" width="120" height="60" as="geometry" />
        </mxCell>
        <mxCell id="m1kAraEHEm_9mK_-Fzff-18" value="" style="rounded=1;whiteSpace=wrap;html=1;" vertex="1" parent="1">
          <mxGeometry x="530" y="880" width="120" height="60" as="geometry" />
        </mxCell>
        <mxCell id="m1kAraEHEm_9mK_-Fzff-19" value="" style="rounded=1;whiteSpace=wrap;html=1;" vertex="1" parent="1">
          <mxGeometry x="530" y="880" width="120" height="60" as="geometry" />
        </mxCell>
        <mxCell id="m1kAraEHEm_9mK_-Fzff-20" value="&lt;span style=&quot;font-family: 默认字体; font-size: 14px; background-color: rgb(248, 249, 250);&quot;&gt;共享内存模型与Actor模型&lt;/span&gt;" style="rounded=1;whiteSpace=wrap;html=1;" vertex="1" parent="1">
          <mxGeometry x="780" y="470" width="120" height="60" as="geometry" />
        </mxCell>
        <mxCell id="m1kAraEHEm_9mK_-Fzff-21" value="" style="rounded=1;whiteSpace=wrap;html=1;" vertex="1" parent="1">
          <mxGeometry x="410" y="860" width="120" height="60" as="geometry" />
        </mxCell>
        <mxCell id="m1kAraEHEm_9mK_-Fzff-22" value="&lt;span style=&quot;font-family: 默认字体; font-size: 14px; background-color: rgb(248, 249, 250);&quot;&gt;UIAbility组件&lt;/span&gt;" style="rounded=1;whiteSpace=wrap;html=1;" vertex="1" parent="1">
          <mxGeometry x="320" y="555" width="120" height="60" as="geometry" />
        </mxCell>
        <mxCell id="m1kAraEHEm_9mK_-Fzff-23" value="&lt;span style=&quot;font-family: 默认字体; font-size: 14px; background-color: rgb(248, 249, 250);&quot;&gt;电话服务&lt;/span&gt;" style="rounded=1;whiteSpace=wrap;html=1;" vertex="1" parent="1">
          <mxGeometry x="390" y="375" width="120" height="60" as="geometry" />
        </mxCell>
        <mxCell id="m1kAraEHEm_9mK_-Fzff-24" value="&lt;span style=&quot;font-family: 默认字体; font-size: 14px; background-color: rgb(248, 249, 250);&quot;&gt;音频&lt;/span&gt;" style="rounded=1;whiteSpace=wrap;html=1;" vertex="1" parent="1">
          <mxGeometry x="870" y="375" width="120" height="60" as="geometry" />
        </mxCell>
        <mxCell id="m1kAraEHEm_9mK_-Fzff-25" value="" style="rounded=1;whiteSpace=wrap;html=1;" vertex="1" parent="1">
          <mxGeometry x="430" y="1030" width="120" height="60" as="geometry" />
        </mxCell>
        <mxCell id="m1kAraEHEm_9mK_-Fzff-26" value="" style="rounded=1;whiteSpace=wrap;html=1;" vertex="1" parent="1">
          <mxGeometry x="290" y="910" width="120" height="60" as="geometry" />
        </mxCell>
        <mxCell id="m1kAraEHEm_9mK_-Fzff-27" value="&lt;span style=&quot;font-family: 默认字体; font-size: 14px; background-color: rgb(248, 249, 250);&quot;&gt;Want（信息传递的载体）&lt;/span&gt;" style="rounded=1;whiteSpace=wrap;html=1;" vertex="1" parent="1">
          <mxGeometry x="320" y="640" width="120" height="60" as="geometry" />
        </mxCell>
        <mxCell id="m1kAraEHEm_9mK_-Fzff-28" value="" style="rounded=1;whiteSpace=wrap;html=1;" vertex="1" parent="1">
          <mxGeometry x="630" y="1020" width="120" height="60" as="geometry" />
        </mxCell>
        <mxCell id="m1kAraEHEm_9mK_-Fzff-29" value="&lt;span style=&quot;font-family: 默认字体; font-size: 14px; background-color: rgb(248, 249, 250);&quot;&gt;FA模型与Stage模型对比&lt;/span&gt;" style="rounded=1;whiteSpace=wrap;html=1;" vertex="1" parent="1">
          <mxGeometry x="320" y="470" width="120" height="60" as="geometry" />
        </mxCell>
        <mxCell id="m1kAraEHEm_9mK_-Fzff-30" value="&lt;span style=&quot;font-family: 默认字体; font-size: 14px; background-color: rgb(248, 249, 250);&quot;&gt;Stage模型进阶-进程通信&lt;/span&gt;" style="rounded=1;whiteSpace=wrap;html=1;" vertex="1" parent="1">
          <mxGeometry x="710" y="375" width="120" height="60" as="geometry" />
        </mxCell>
      </root>
    </mxGraphModel>
  </diagram>
</mxfile>
